# xmcd
#
# Track frame offsets: 
#        150
#        11125
#        24479
#        43387
#        58159
#        72118
#        84361
#        97895
#        114727
#        129963
#        141016
#        154758
#        170669
#        184598
#        198541
#        212753
#        226551
#        239819
#        256525
#        270202
#
# Disc length: 3829 seconds
#
# Revision: 0
# Processed by: cddbd v1.5.2PL0 Copyright (c) Steve Scherf et al.
# Submitted via: ExactAudioCopy v1.3
#
DISCID=0d0ef314
DTITLE=Ronnie Milsap - By Request
DYEAR=1982
DGENRE=Country
TTITLE0=Pure Love
TTITLE1=What Goes On When Sun Goes Down
TTITLE2=Why Don't You Spend The Night
TTITLE3=I Honestly Love You
TTITLE4=Let My Love Be Your Pillow
TTITLE5=My Heart
TTITLE6=Behind Closed Doors
TTITLE7=Am I Losing You
TTITLE8=Let's Take The Long Way Around The World
TTITLE9=Daydreams About Night Things
TTITLE10=(I'm A) Stand By My Woman Man
TTITLE11=Only One Love In My Life
TTITLE12=That Girl Who Waits On Tables
TTITLE13=(After Sweet Memories) Play Born To Lose Again
TTITLE14=Too Late To Worry,Too Blue To Cry
TTITLE15=Just In Case
TTITLE16=I Hate You
TTITLE17=In No Time At All
TTITLE18=Cowboys And Clowns
TTITLE19=Nobody Likes Sad Songs
EXTD=
EXTT0=
EXTT1=
EXTT2=
EXTT3=
EXTT4=
EXTT5=
EXTT6=
EXTT7=
EXTT8=
EXTT9=
EXTT10=
EXTT11=
EXTT12=
EXTT13=
EXTT14=
EXTT15=
EXTT16=
EXTT17=
EXTT18=
EXTT19=
PLAYORDER=
